#!OML:ASF H:\LiuWeirdWalks\Patient Classification 1\Patient 1\Session 1\male.ASF
:FULLY-SPECIFIED
:DEGREES
689
root 2.079 18.0355 33.2305 -2.53068 1.67978 1.15317
lowerback 5.44744 -1.232 -3.62199
upperback -0.832759 -1.7813 2.92502
thorax -3.71811 -0.778112 5.23275
lowerneck -18.2139 3.15973 5.86783
upperneck 25.6321 5.22205 -8.73534
head 11.8129 1.8215 -3.44509
rclavicle -8.57259e-015 3.18055e-015
rhumerus -42.9981 -12.7711 -67.7761
rradius 29.1327
rwrist -4.3606
rhand -15.4945 -0.71411
rfingers 7.12502
rthumb 10.6878 -30.4223
lclavicle -8.57259e-015 3.18055e-015
lhumerus -38.1458 0.189893 79.3194
lradius 42.5086
lwrist 8.02234
lhand -13.1446 -2.18824
lfingers 7.12502
lthumb 12.9539 27.3897
rfemur -21.4796 0.799138 17.5481
rtibia 15.7322
rfoot -3.98871 -17.5288
rtoes -13.3927
lfemur 7.15677 -2.69347 -23.7776
ltibia 19.9732
lfoot -8.76776 11.821
ltoes -16.192
690
root 2.06419 18.0262 33.338 -2.41058 1.73023 1.15368
lowerback 5.41788 -1.16677 -3.57031
upperback -0.915325 -1.69106 2.8844
thorax -3.80041 -0.730689 5.15447
lowerneck -18.0828 3.08304 5.81915
upperneck 25.5799 5.10649 -8.65849
head 11.7517 1.7784 -3.42453
rclavicle 2.31087e-015 7.15625e-015
rhumerus -43.198 -12.9189 -67.6692
rradius 28.985
rwrist -4.2038
rhand -15.5037 -0.752689
rfingers 7.12502
rthumb 10.6789 -30.4613
lclavicle 2.31087e-015 7.15625e-015
lhumerus -38.1136 0.051279 79.3109
lradius 42.5731
lwrist 7.95392
lhand -13.1876 -2.32916
lfingers 7.12502
lthumb 12.9123 27.2514
rfemur -21.4619 0.64287 17.7237
rtibia 15.5439
rfoot -3.7582 -17.4016
rtoes -13.5939
lfemur 7.31033 -2.88343 -23.744
ltibia 20.1489
lfoot -8.76662 11.862
ltoes -16.6431
691
root 2.05179 18.0159 33.4507 -2.31975 1.7883 1.28819
lowerback 5.35873 -1.11205 -3.64104
upperback -0.976139 -1.62376 2.81316
thorax -3.83821 -0.694072 5.11397
lowerneck -17.9816 3.01801 5.7531
upperneck 25.5697 5.01287 -8.57398
head 11.7143 1.74311 -3.39569
rclavicle -5.76476e-015 1.27222e-014
rhumerus -43.376 -13.0694 -67.5335
rradius 28.8086
rwrist -3.98055
rhand -15.4844 -0.708617
rfingers 7.12502
rthumb 10.6975 -30.4163
lclavicle -5.76476e-015 1.27222e-014
lhumerus -38.1057 -0.00438718 79.2925
lradius 42.6164
lwrist 7.81845
lhand -13.202 -2.46117
lfingers 7.12502
lthumb 12.8985 27.1202
rfemur -21.4239 0.353779 17.7764
rtibia 15.6487
rfoot -3.57307 -17.1219
rtoes -13.6473
lfemur 7.53076 -3.08788 -23.8815
ltibia 20.3234
lfoot -8.752 11.9233
ltoes -17.1226
692
root 2.03855 18.0047 33.565 -2.24806 1.81502 1.39826
lowerback 5.29514 -1.05184 -3.68848
upperback -1.02591 -1.54715 2.74902
thorax -3.86342 -0.653828 5.06656
lowerneck -17.8729 2.9523 5.67509
upperneck 25.5553 4.91983 -8.48248
head 11.6735 1.70792 -3.36189
rclavicle -9.01985e-015 8.74653e-015
rhumerus -43.5465 -13.2552 -67.3738
rradius 28.6135
rwrist -3.71657
rhand -15.4432 -0.626893
rfingers 7.12502
rthumb 10.7372 -30.3325
lclavicle -9.01985e-015 8.74653e-015
lhumerus -38.1237 -0.0327045 79.2747
lradius 42.6616
lwrist 7.7208
lhand -13.2257 -2.52039
lfingers 7.12502
lthumb 12.8756 27.0624
rfemur -21.3574 0.171329 17.8507
rtibia 15.9532
rfoot -3.44399 -16.8742
rtoes -13.5012
lfemur 7.77262 -3.26993 -23.9905
ltibia 20.516
lfoot -8.72423 11.981
ltoes -17.6062
693
root 2.02401 17.9925 33.681 -2.21647 1.81482 1.43975
lowerback 5.25083 -0.990067 -3.67597
upperback -1.05974 -1.46408 2.70691
thorax -3.8844 -0.611937 5.00796
lowerneck -17.7762 2.89876 5.60492
upperneck 25.5323 4.84458 -8.40424
head 11.6343 1.6796 -3.33141
rclavicle 1.49089e-015 -3.18055e-015
rhumerus -43.6911 -13.4357 -67.2169
rradius 28.3906
rwrist -3.47417
rhand -15.4117 -0.544858
rfingers 7.12502
rthumb 10.7676 -30.2489
lclavicle 1.49089e-015 -3.18055e-015
lhumerus -38.168 -0.0325477 79.2667
lradius 42.7172
lwrist 7.74708
lhand -13.2917 -2.50791
lfingers 7.12502
lthumb 12.812 27.0789
rfemur -21.22 0.10125 17.9974
rtibia 16.3797
rfoot -3.31633 -16.6485
rtoes -13.2824
lfemur 8.05434 -3.41828 -24.0184
ltibia 20.7344
lfoot -8.69221 12.0295
ltoes -18.0822
694
root 2.00735 17.9796 33.799 -2.21888 1.79813 1.42325
lowerback 5.2164 -0.927103 -3.61763
upperback -1.07498 -1.37605 2.67989
thorax -3.89258 -0.569204 4.93865
lowerneck -17.6842 2.85182 5.54169
upperneck 25.4867 4.77723 -8.33443
head 11.5887 1.65453 -3.30345
rclavicle 7.20594e-016 1.35174e-014
rhumerus -43.8151 -13.6511 -67.0546
rradius 28.1571
rwrist -3.23647
rhand -15.381 -0.507835
rfingers 7.12502
rthumb 10.7973 -30.2103
lclavicle 7.20594e-016 1.35174e-014
lhumerus -38.2342 -0.0255402 79.2666
lradius 42.7877
lwrist 7.91699
lhand -13.4036 -2.41862
lfingers 7.12502
lthumb 12.7041 27.1749
rfemur -20.9932 0.168883 18.198
rtibia 16.8344
rfoot -3.17679 -16.4788
rtoes -12.9674
lfemur 8.35441 -3.52013 -23.9674
ltibia 20.9962
lfoot -8.66708 12.0517
ltoes -18.5314
695
root 1.98865 17.968 33.9197 -2.23228 1.79519 1.3762
lowerback 5.17418 -0.874176 -3.53957
upperback -1.06974 -1.2997 2.66008
thorax -3.87371 -0.533803 4.86603
lowerneck -17.6646 2.82465 5.51058
upperneck 25.4368 4.73214 -8.28874
head 11.5595 1.63799 -3.28645
rclavicle -1.61761e-014 2.38542e-015
rhumerus -43.8915 -13.8708 -66.9212
rradius 27.925
rwrist -3.06652
rhand -15.3864 -0.564777
rfingers 7.12502
rthumb 10.792 -30.2675
lclavicle -1.61761e-014 2.38542e-015
lhumerus -38.2967 -0.00125717 79.2676
lradius 42.8535
lwrist 8.20176
lhand -13.5687 -2.31936
lfingers 7.12502
lthumb 12.5449 27.284
rfemur -20.7262 0.342027 18.4136
rtibia 17.3045
rfoot -2.98911 -16.3452
rtoes -12.665
lfemur 8.67017 -3.59162 -23.8655
ltibia 21.2524
lfoot -8.62179 12.0245
ltoes -18.9415
696
root 1.96857 17.9586 34.0436 -2.24349 1.8369 1.40434
lowerback 5.1027 -0.829728 -3.52183
upperback -1.05834 -1.23949 2.60074
thorax -3.82956 -0.506273 4.78669
lowerneck -17.6692 2.79755 5.49761
upperneck 25.4138 4.68093 -8.23732
head 11.5454 1.62034 -3.27207
rclavicle 4.00054e-015 2.38542e-015
rhumerus -43.974 -14.1615 -66.7784
rradius 27.6838
rwrist -2.85219
rhand -15.3792 -0.600044
rfingers 7.12502
rthumb 10.799 -30.3024
lclavicle 4.00054e-015 2.38542e-015
lhumerus -38.3665 0.0119623 79.246
lradius 42.8913
lwrist 8.45548
lhand -13.7142 -2.22822
lfingers 7.12502
lthumb 12.4047 27.3837
rfemur -20.4927 0.55002 18.5229
rtibia 17.837
rfoot -2.7096 -16.185
rtoes -12.4502
lfemur 9.03089 -3.65433 -23.835
ltibia 21.4156
lfoot -8.48742 11.9393
ltoes -19.3536
697
root 1.94713 17.9541 34.1698 -2.1984 1.95256 1.59867
lowerback 4.97886 -0.809292 -3.70428
upperback -1.0421 -1.22397 2.51111
thorax -3.74283 -0.498056 4.79166
lowerneck -17.8065 2.7845 5.47218
upperneck 25.4561 4.65262 -8.18453
head 11.5846 1.60827 -3.25307
rclavicle -2.57675e-014 3.4191e-014
rhumerus -43.9832 -14.4756 -66.6261
rradius 27.4097
rwrist -2.60506
rhand -15.3632 -0.625712
rfingers 7.12502
rthumb 10.8144 -30.3273
lclavicle -2.57675e-014 3.4191e-014
lhumerus -38.3984 0.100241 79.2103
lradius 42.8505
lwrist 8.51515
lhand -13.8138 -2.2363
lfingers 7.12502
lthumb 12.3086 27.3814
rfemur -20.3991 0.748571 18.4153
rtibia 18.4475
rfoot -2.26155 -16.003
rtoes -12.1623
lfemur 9.39509 -3.74088 -23.9758
ltibia 21.4352
lfoot -8.21005 11.7799
ltoes -19.7961
698
root 1.92551 17.9549 34.2983 -2.04859 2.14904 2.14128
lowerback 4.74858 -0.807617 -4.25086
upperback -1.05877 -1.25522 2.3311
thorax -3.62028 -0.506665 4.91043
lowerneck -17.9521 2.77302 5.455
upperneck 25.5287 4.62949 -8.14414
head 11.6381 1.59737 -3.24018
rclavicle 3.17062e-014 -1.59028e-015
rhumerus -43.9925 -14.7919 -66.459
rradius 27.1169
rwrist -2.34272
rhand -15.3593 -0.600448
rfingers 7.12502
rthumb 10.8182 -30.3018
lclavicle 3.17062e-014 -1.59028e-015
lhumerus -38.4499 0.229642 79.1579
lradius 42.7443
lwrist 8.37602
lhand -13.8318 -2.27289
lfingers 7.12502
lthumb 12.2913 27.3459
rfemur -20.5236 0.844153 17.8926
rtibia 19.1459
rfoot -1.49909 -15.7142
rtoes -11.7186
lfemur 9.72522 -3.88784 -24.5065
ltibia 21.2957
lfoot -7.73112 11.5837
ltoes -20.2903
699
root 1.90463 17.9605 34.4285 -1.84389 2.41166 2.84335
lowerback 4.48155 -0.829419 -4.96337
upperback -1.09264 -1.32401 2.11743
thorax -3.4877 -0.531226 5.09006
lowerneck -18.1634 2.76744 5.4284
upperneck 25.6635 4.62182 -8.11124
head 11.7302 1.58951 -3.22771
rclavicle -1.06847e-014 -7.15625e-015
rhumerus -43.9731 -15.0983 -66.2795
rradius 26.7962
rwrist -2.06761
rhand -15.3528 -0.601061
rfingers 7.12502
rthumb 10.8245 -30.3021
lclavicle -1.06847e-014 -7.15625e-015
lhumerus -38.5 0.414147 79.1003
lradius 42.5647
lwrist 8.07093
lhand -13.7607 -2.30431
lfingers 7.12502
lthumb 12.3599 27.3103
rfemur -20.7945 0.796609 17.1758
rtibia 19.8901
rfoot -0.371616 -15.3124
rtoes -10.9599
lfemur 10.0423 -4.08513 -25.2145
ltibia 21.0595
lfoot -7.10894 11.3361
ltoes -20.8114
700
root 1.8849 17.9693 34.5599 -1.58971 2.71993 3.6145
lowerback 4.15904 -0.870969 -5.74572
upperback -1.16566 -1.41616 1.89583
thorax -3.35951 -0.565541 5.3012
lowerneck -18.2749 2.74924 5.38972
upperneck 25.7817 4.609 -8.09921
head 11.796 1.57796 -3.22159
rclavicle -8.10048e-015 -1.19271e-014
rhumerus -44.0076 -15.3746 -66.06
rradius 26.4779
rwrist -1.80431
rhand -15.3402 -0.589126
rfingers 7.12502
rthumb 10.8366 -30.2895
lclavicle -8.10048e-015 -1.19271e-014
lhumerus -38.6079 0.613383 79.0612
lradius 42.327
lwrist 7.71494
lhand -13.6533 -2.31666
lfingers 7.12502
lthumb 12.4634 27.2917
rfemur -21.1539 0.593388 16.3782
rtibia 20.6232
rfoot 1.06395 -14.8725
rtoes -9.50053
lfemur 10.299 -4.31785 -25.9964
ltibia 20.8348
lfoot -6.3937 11.0447
ltoes -21.3657
